<svg viewBox="0 0 64 64" xmlns="http://www.w3.org/2000/svg">
  <!-- maple leaf — classic 5-lobe shape built from path -->
  <!-- shadow -->
  <path d="M33 9 L37 19 L47 14 L44 24 L56 24 L48 32 L54 42 L42 38 L38 52 L32 44 L26 52 L22 38 L10 42 L16 32 L8 24 L20 24 L17 14 L27 19 Z"
        fill="#A0300A" opacity="0.25" transform="translate(1,1)"/>
  <!-- main leaf -->
  <path d="M32 8 L36 18 L46 13 L43 23 L55 23 L47 31 L53 41 L41 37 L37 51 L32 43 L27 51 L23 37 L11 41 L17 31 L9 23 L21 23 L18 13 L28 18 Z"
        fill="#E8430A" stroke="white" stroke-width="3" stroke-linejoin="round"/>
  <!-- right-side lit face -->
  <path d="M32 8 L36 18 L46 13 L43 23 L55 23 L47 31 L53 41 L41 37 L37 51 L32 43 Z"
        fill="#FF5722" opacity="0.35"/>
  <!-- vein network -->
  <line x1="32" y1="43" x2="32" y2="10"  stroke="white" stroke-width="1.8" stroke-linecap="round" opacity="0.5"/>
  <line x1="32" y1="28" x2="17" y2="31"  stroke="white" stroke-width="1.2" stroke-linecap="round" opacity="0.4"/>
  <line x1="32" y1="28" x2="47" y2="31"  stroke="white" stroke-width="1.2" stroke-linecap="round" opacity="0.4"/>
  <line x1="32" y1="22" x2="21" y2="23"  stroke="white" stroke-width="1"   stroke-linecap="round" opacity="0.35"/>
  <line x1="32" y1="22" x2="43" y2="23"  stroke="white" stroke-width="1"   stroke-linecap="round" opacity="0.35"/>
  <!-- stem -->
  <line x1="32" y1="50" x2="32" y2="57"  stroke="#E8430A" stroke-width="3" stroke-linecap="round"/>
  <line x1="32" y1="50" x2="32" y2="57"  stroke="white"   stroke-width="1.5" stroke-linecap="round" opacity="0.5"/>
</svg>
